<svg width="38" height="38" viewBox="0 0 512 512" fill="none" stroke="currentColor" xmlns="http://www.w3.org/2000/svg">
	<path d="M192 146C192 146 167.64 134 256 134C287.645 134 318.579 143.384 344.891 160.965C371.203 178.546 391.711 203.534 403.821 232.771C415.931 262.007 419.099 294.177 412.926 325.214C406.752 356.251 391.513 384.761 369.137 407.137C346.761 429.513 318.251 444.752 287.214 450.926C256.177 457.099 224.007 453.931 194.771 441.821C165.534 429.711 140.546 409.203 122.965 382.891C105.384 356.579 96 325.645 96 294" stroke="white" stroke-width="32" stroke-miterlimit="10" stroke-linecap="round" />
	<path d="M256 58L176 138L256 218" stroke="white" stroke-width="32" stroke-linecap="round" stroke-linejoin="round" />
</svg>
